<?xml version="1.0" standalone="no"?>
<!DOCTYPE svg PUBLIC "-//W3C//DTD SVG 20010904//EN"
 "http://www.w3.org/TR/2001/REC-SVG-20010904/DTD/svg10.dtd">
<svg version="1.0" xmlns="http://www.w3.org/2000/svg"
 width="233.000000pt" height="300.000000pt" viewBox="0 0 233.000000 300.000000"
 preserveAspectRatio="xMidYMid meet">
<metadata>
Created by potrace 1.10, written by Peter Selinger 2001-2011
</metadata>
<g transform="translate(0.000000,300.000000) scale(0.100000,-0.100000)"
fill="#000000" stroke="none">
<path d="M663 2875 c4 -28 23 -158 42 -290 20 -132 40 -269 45 -305 5 -36 14
-87 20 -114 6 -27 9 -50 7 -52 -3 -4 -390 49 -629 86 -37 5 -71 10 -77 10 -9
0 129 -189 211 -290 16 -19 32 -39 36 -45 82 -111 172 -227 194 -251 l29 -31
-128 -27 c-70 -16 -162 -36 -203 -46 -41 -10 -88 -21 -103 -24 -22 -5 -25 -9
-15 -19 69 -65 428 -357 439 -357 24 0 2 -21 -63 -62 -195 -121 -248 -157
-241 -161 4 -3 24 -8 43 -12 19 -4 58 -17 85 -30 28 -12 90 -37 138 -55 68
-25 87 -37 82 -48 -3 -9 -15 -54 -25 -101 -11 -47 -26 -111 -35 -141 -19 -70
-19 -74 3 -65 9 4 37 9 62 12 25 3 79 11 120 18 41 7 78 10 81 7 6 -6 -13
-156 -26 -209 -5 -21 9 -33 17 -15 2 5 28 23 60 40 l56 32 74 -73 c60 -59 89
-79 152 -105 114 -48 184 -63 273 -60 l78 3 3 113 c3 109 3 112 25 112 34 0
131 27 227 62 142 53 245 133 321 251 17 27 35 40 64 48 117 32 167 146 113
257 -20 42 -20 49 -9 116 23 129 24 151 5 187 -12 24 -20 70 -25 157 -6 106
-12 131 -37 185 -16 34 -45 81 -65 105 -20 24 -48 65 -63 92 -32 58 -109 115
-169 126 -41 7 -98 36 -175 90 -58 39 -162 78 -189 69 -20 -6 -21 -3 -21 72
-1 129 -12 488 -16 492 -4 5 -21 -16 -118 -143 -38 -50 -73 -92 -77 -94 -8 -3
-183 148 -214 184 -5 6 -95 87 -199 180 l-189 168 6 -49z m347 -351 c96 -87
193 -175 215 -196 37 -35 41 -36 53 -20 7 9 18 24 25 32 43 52 97 136 102 161
10 46 25 34 25 -21 0 -40 -3 -48 -15 -44 -13 5 -15 -7 -15 -77 0 -46 4 -99 9
-117 6 -20 6 -32 0 -32 -5 0 -9 5 -9 11 0 15 -111 6 -195 -16 -236 -62 -389
-260 -457 -590 -17 -80 -22 -150 -25 -346 l-5 -246 -36 -19 c-58 -31 -87 -102
-66 -158 8 -22 25 -20 17 1 -5 15 -3 14 10 -2 15 -19 14 -20 -7 -23 -13 -2
-63 12 -112 31 -49 19 -106 41 -128 49 l-38 15 78 48 c117 71 167 103 187 119
18 14 18 15 -2 35 -12 12 -25 21 -30 21 -5 0 -11 4 -13 8 -3 8 -122 108 -287
240 -36 30 -67 57 -69 61 -1 5 12 11 30 15 47 9 382 88 386 92 2 1 -16 27 -40
56 -44 55 -57 72 -203 263 -47 61 -88 115 -92 120 -5 6 -24 30 -42 55 -19 25
-41 51 -50 57 -25 21 -9 23 84 8 50 -7 162 -23 250 -35 167 -23 192 -27 264
-35 l43 -5 -6 33 c-3 17 -17 111 -31 207 -29 203 -62 422 -71 465 l-6 30 48
-46 c27 -25 128 -117 224 -205z m411 -342 c-6 -11 -4 -20 7 -29 16 -11 16 -12
0 -13 -10 0 -20 10 -24 23 -4 19 -11 23 -30 19 -16 -3 -24 0 -24 10 0 10 11
13 40 10 33 -3 38 -7 31 -20z m-217 -7 c-4 -8 -17 -15 -30 -15 -13 0 -24 -4
-24 -10 0 -5 -7 -10 -16 -10 -9 0 -22 -7 -29 -16 -10 -14 -15 -15 -31 -5 -14
9 -15 11 -2 7 9 -2 19 1 21 9 3 7 23 18 44 25 21 7 42 16 48 21 14 14 25 11
19 -6z m48 -3 c14 -6 11 -9 -17 -18 -31 -10 -33 -9 -24 8 10 19 15 20 41 10z
m134 -228 c-5 -12 -58 -20 -195 -29 -41 -3 -77 -8 -79 -10 -13 -13 63 -27 140
-27 107 0 151 9 144 27 -3 8 1 19 9 25 9 8 12 23 8 48 -3 21 -2 33 3 29 5 -5
9 -15 9 -23 0 -7 5 -14 10 -13 13 0 6 42 -9 51 -6 4 -7 8 -3 8 4 0 3 9 -2 19
-8 14 -7 20 4 24 15 6 30 -38 28 -83 -1 -14 -3 -58 -5 -97 -1 -41 -7 -73 -13
-73 -5 0 -3 -4 5 -10 8 -5 11 -12 8 -15 -4 -4 -3 -17 2 -30 6 -16 4 -29 -7
-45 -11 -15 -12 -25 -5 -32 14 -14 4 -38 -15 -38 -8 0 -11 -4 -8 -10 3 -5 0
-7 -8 -4 -12 4 -15 -48 -16 -357 -1 -343 0 -364 18 -380 22 -21 37 -13 16 8
-20 19 -20 64 0 57 11 -5 13 1 8 30 -3 20 -2 36 3 36 11 0 10 -67 -1 -94 -6
-13 -5 -17 2 -13 6 4 14 -1 18 -11 7 -16 8 -15 15 3 7 18 8 17 15 -8 5 -18 3
-33 -4 -40 -10 -9 -12 -9 -9 2 2 7 -3 16 -11 19 -10 3 -12 0 -8 -12 4 -9 2
-16 -3 -16 -6 0 -9 -3 -9 -7 1 -5 0 -12 -1 -18 -1 -5 -1 -30 0 -54 1 -32 -2
-42 -12 -39 -15 5 -17 34 -5 61 5 11 4 17 -4 17 -6 0 -9 6 -6 14 4 9 -3 16
-16 20 -12 3 -18 8 -14 12 3 3 -4 25 -16 48 -17 33 -21 59 -22 133 0 83 -6
115 -20 101 -13 -12 -26 -128 -20 -172 7 -56 16 -77 57 -126 24 -30 28 -43 28
-97 l0 -63 -82 0 c-133 0 -274 -45 -315 -99 -20 -27 -3 -32 35 -11 20 11 63
28 94 39 l58 18 20 -34 c12 -21 36 -41 63 -53 36 -16 46 -26 56 -60 6 -22 25
-55 41 -74 29 -33 30 -36 30 -143 l0 -110 -62 9 c-138 19 -253 73 -324 152
-57 63 -138 226 -163 331 -33 135 -41 230 -42 500 -1 252 11 392 41 505 5 19
10 38 10 42 2 18 51 138 70 173 93 165 203 240 395 269 l70 11 3 -99 c1 -55 1
-105 -2 -112z m-574 139 c-4 -13 -56 -12 -70 1 -4 4 -2 7 3 6 6 -1 13 -1 18 0
4 1 13 3 20 4 6 0 14 12 16 26 l4 25 7 -25 c4 -14 5 -31 2 -37z m256 6 c-16
-6 -28 -15 -28 -20 0 -6 -8 -9 -17 -7 -13 2 -17 -3 -15 -17 3 -16 1 -17 -8 -8
-17 16 -4 47 16 39 11 -4 15 -2 11 7 -3 9 6 13 32 14 35 2 35 2 9 -8z m-102
-68 c-10 -11 -15 -24 -12 -30 4 -5 -3 -9 -14 -8 -11 1 -20 3 -20 4 0 9 54 62
58 58 3 -3 -3 -14 -12 -24z m638 -57 c37 -19 88 -49 114 -65 26 -16 76 -38
113 -49 80 -24 126 -59 165 -125 17 -27 36 -50 44 -50 9 0 15 -9 14 -22 0 -14
4 -19 14 -15 11 4 13 0 7 -16 -3 -12 -2 -22 2 -22 5 0 15 -17 23 -37 7 -21 15
-33 17 -26 2 6 -3 25 -11 42 -20 37 -21 53 -3 26 30 -44 60 -164 38 -151 -6 4
-11 3 -11 -3 0 -5 5 -13 10 -16 13 -8 13 -61 0 -85 -9 -17 -8 -18 7 -13 16 6
16 5 4 -11 -12 -14 -12 -19 -2 -26 8 -4 10 -13 6 -20 -5 -8 -4 -11 3 -6 7 4
13 -14 18 -56 6 -52 9 -58 16 -38 6 20 7 18 3 -9 -3 -18 -5 -41 -6 -50 -1 -9
-4 -5 -9 9 -7 21 -8 22 -9 5 -1 -12 4 -26 11 -33 7 -7 8 -12 2 -12 -6 0 -9
-27 -7 -70 3 -58 1 -70 -11 -70 -16 0 -20 21 -18 90 1 14 -3 66 -8 115 -17
165 -87 319 -192 423 -63 63 -191 151 -221 153 -114 7 -115 8 -99 17 8 6 1 12
-23 19 -20 6 -35 7 -35 2 0 -5 -9 -9 -21 -9 -11 0 -18 4 -14 9 3 5 1 12 -4 15
-5 4 -12 2 -16 -4 -3 -5 -15 -15 -26 -20 -18 -10 -19 -6 -19 124 l0 134 34 -9
c18 -5 64 -25 100 -45z m-684 -9 c0 -23 -29 -75 -41 -75 -6 0 -7 -4 -4 -10 3
-5 0 -21 -8 -36 -10 -19 -15 -22 -19 -13 -7 18 46 132 56 122 4 -4 4 0 0 10
-3 10 -1 17 5 17 6 0 11 -7 11 -15z m-77 -156 c7 -27 -2 -51 -17 -42 -7 5 -7
2 1 -8 16 -20 9 -54 -11 -53 -14 2 -15 -1 -4 -14 11 -13 10 -15 -5 -9 -15 6
-16 4 -6 -14 11 -21 4 -77 -8 -65 -4 4 -13 -4 -20 -16 -12 -20 -13 -20 -9 -3
3 11 9 46 15 78 6 31 14 65 19 75 5 9 12 34 16 55 8 41 21 48 29 16z m799 -99
c134 -41 288 -161 351 -274 74 -133 111 -329 89 -479 -24 -169 -75 -280 -173
-378 -81 -81 -180 -130 -351 -173 l-88 -23 0 114 0 113 89 0 c50 0 92 4 96 9
12 21 -106 91 -155 91 l-30 0 0 64 c0 36 5 68 10 71 6 3 17 19 25 35 13 26 13
31 -10 64 -21 31 -25 49 -26 126 -1 49 1 93 4 97 4 3 7 -8 7 -26 0 -44 22 -82
70 -123 127 -109 336 -64 406 87 87 186 -67 395 -273 371 -61 -7 -95 -22 -142
-62 -35 -30 -65 -80 -56 -94 3 -6 1 -18 -5 -27 -10 -16 -11 -16 -7 4 3 12 2
23 -2 25 -3 2 -5 97 -3 211 l3 208 57 -7 c31 -3 83 -14 114 -24z m172 -32 c18
-16 18 -17 0 -12 -11 3 -32 17 -49 30 l-30 25 30 -13 c17 -7 38 -20 49 -30z
m-374 -62 c0 -8 -5 -16 -11 -18 -6 -2 -5 -14 5 -33 20 -38 20 -45 0 -45 -8 0
-12 4 -9 10 3 5 1 19 -5 30 -6 11 -8 31 -4 45 7 27 24 35 24 11z m-852 -36
c14 -8 12 -10 -11 -7 -15 2 -27 6 -27 10 0 4 0 15 0 25 1 16 1 16 11 0 5 -10
17 -22 27 -28z m197 -29 c3 -5 0 -13 -6 -17 -8 -4 -7 -9 2 -15 10 -6 10 -9 2
-9 -6 0 -10 -8 -8 -19 2 -10 0 -34 -4 -52 -4 -19 -5 -45 -1 -59 4 -14 1 -43
-6 -65 -8 -22 -12 -30 -10 -17 2 12 0 22 -5 22 -9 0 -6 97 7 188 6 49 16 63
29 43z m659 -136 c-6 -16 -34 -28 -34 -16 0 22 13 39 25 35 8 -3 11 -12 9 -19z
m353 10 c96 -40 145 -110 145 -204 0 -70 -12 -99 -57 -150 -57 -63 -145 -88
-232 -66 -84 21 -163 125 -163 214 1 151 169 263 307 206z m-359 -60 c-3 -14
1 -30 9 -36 8 -7 11 -20 7 -33 -4 -12 -7 -63 -6 -114 1 -91 0 -92 -17 -70 -18
23 -25 62 -9 52 4 -3 8 -1 8 5 0 5 -5 13 -11 17 -7 4 -8 9 0 17 7 7 7 16 0 29
-5 10 -8 22 -5 26 2 4 1 26 -4 49 -5 31 -3 48 7 63 19 27 26 25 21 -5z m-680
-137 c-3 -16 -1 -31 4 -34 4 -3 7 -33 7 -67 -1 -50 -3 -56 -9 -32 -7 27 -8 26
-9 -15 0 -32 2 -41 9 -30 9 13 10 13 11 0 5 -50 5 -89 0 -85 -4 2 -4 -24 0
-58 3 -34 2 -70 -3 -79 -6 -13 -5 -18 6 -18 12 0 13 -6 5 -32 -5 -17 -6 -34
-4 -37 3 -2 5 2 5 10 0 11 2 11 10 -1 5 -8 7 -22 4 -32 -2 -9 0 -19 5 -22 6
-4 7 -14 4 -22 -3 -9 -1 -19 6 -23 9 -6 9 -11 -2 -19 -10 -9 -14 -9 -14 1 0
20 -44 107 -54 107 -5 0 -9 8 -9 18 -1 9 -14 33 -30 52 -37 43 -39 84 -5 134
28 41 31 56 13 57 -7 0 -3 5 10 11 20 10 22 18 23 92 0 45 0 101 -1 125 -1 31
2 41 10 36 7 -4 10 -20 8 -37z m1367 -163 c3 -64 1 -116 -5 -125 -7 -10 -9 11
-8 70 1 47 -1 121 -4 165 -5 60 -4 70 3 40 5 -22 11 -89 14 -150z m43 -140
c25 -54 10 -123 -33 -151 -34 -22 -38 -15 -21 32 7 22 17 63 21 92 8 58 16 64
33 27z m-1504 -116 c-2 -4 5 -11 17 -14 11 -4 18 -9 15 -12 -3 -3 -16 1 -30
10 -13 9 -27 13 -30 9 -8 -8 69 -79 95 -87 10 -4 19 -14 19 -23 0 -10 9 -42
20 -71 11 -30 19 -56 17 -57 -1 -1 -45 -10 -97 -19 -52 -9 -98 -19 -102 -21
-11 -7 -12 -11 22 120 29 109 31 144 9 131 -20 -13 -30 7 -13 26 15 17 68 24
58 8z m796 -122 c0 -4 -9 -3 -20 3 -16 8 -18 8 -14 -4 3 -8 -4 -23 -15 -33
-18 -15 -21 -28 -20 -88 0 -38 4 -79 9 -90 7 -17 9 -17 9 -2 1 9 6 17 13 17 9
0 9 3 0 12 -18 18 -16 44 2 29 13 -11 18 -45 17 -113 0 -15 4 -30 9 -33 13 -8
1 -66 -19 -89 -12 -14 -13 -20 -3 -23 6 -3 12 -10 12 -16 0 -6 -7 -4 -16 5
-13 12 -14 20 -5 37 9 15 9 26 1 42 -7 11 -9 23 -6 27 3 3 6 -1 6 -8 0 -12 2
-12 13 -1 9 11 9 14 0 18 -7 3 -20 20 -29 39 -9 19 -20 34 -25 34 -5 0 -9 5
-9 11 0 6 -7 35 -16 65 -12 41 -20 54 -34 54 -22 0 -92 58 -85 70 2 4 39 8 82
9 76 2 98 12 88 38 -2 7 1 12 7 10 7 -1 13 4 14 11 1 6 2 15 3 20 2 8 30 -39
31 -51z m71 -19 c53 -15 49 -25 -11 -24 -41 1 -50 4 -50 19 0 20 9 21 61 5z
m-86 -8 c-4 -6 -2 -17 5 -25 13 -16 -3 -55 -23 -55 -7 0 -3 -7 7 -15 11 -8 17
-18 13 -21 -12 -12 -37 25 -37 55 0 32 18 71 33 71 4 0 5 -5 2 -10z m-629 -55
c-3 -8 -1 -15 4 -15 6 0 10 -8 10 -18 0 -10 7 -27 15 -38 8 -10 15 -27 15 -36
0 -10 4 -18 9 -18 5 0 13 -10 17 -22 4 -13 9 -25 13 -28 24 -19 44 -99 21 -85
-5 3 -7 12 -3 20 3 8 0 15 -6 15 -6 0 -11 -6 -12 -12 0 -7 -9 5 -19 27 -11 25
-18 32 -18 20 1 -11 -3 -29 -7 -40 -6 -17 -5 -17 5 -5 10 13 11 13 7 0 -2 -8
-10 -15 -18 -15 -8 0 -19 -9 -26 -20 -10 -17 -12 -17 -13 -3 0 9 4 19 9 22 14
9 21 88 9 109 -8 16 -12 17 -20 6 -7 -11 -9 -9 -7 6 1 11 1 31 0 45 -1 20 -3
22 -11 10 -8 -13 -10 -13 -10 2 0 9 5 20 10 23 6 3 10 16 10 29 0 21 7 36 18
36 2 0 2 -7 -2 -15z m614 -424 c0 -11 3 -27 6 -36 6 -15 4 -15 -15 -4 -12 8
-17 15 -12 17 5 2 7 12 4 22 -3 11 0 20 6 20 6 0 11 -9 11 -19z"/>
<path d="M1396 1871 c-8 -13 -105 -23 -224 -22 -114 0 -129 -3 -111 -25 9 -11
42 -14 148 -13 162 1 182 6 192 42 7 27 5 35 -5 18z"/>
<path d="M1390 1795 c0 -20 -6 -25 -37 -30 -21 -4 -54 -11 -73 -16 -20 -5
-104 -6 -195 -2 -88 4 -169 8 -180 8 -15 0 -24 -12 -35 -43 -13 -38 -13 -43 3
-59 15 -15 42 -19 165 -23 l148 -5 43 -40 c24 -22 52 -58 63 -80 11 -22 27
-48 36 -57 18 -22 31 -20 -163 -23 -128 -2 -175 -6 -235 -23 -41 -12 -79 -22
-83 -22 -14 0 3 61 34 123 33 66 33 67 16 67 -14 0 -45 -46 -64 -95 -18 -46
-16 -181 3 -220 21 -45 76 -100 127 -127 33 -18 59 -23 122 -23 97 0 151 22
212 84 62 64 77 102 77 197 0 70 -4 87 -28 128 -15 26 -45 59 -66 74 -22 15
-39 30 -40 35 0 4 19 7 41 7 60 0 121 20 114 37 -3 10 1 13 15 8 18 -6 19 -5
5 22 -16 30 -19 52 -9 78 5 13 8 14 15 3 7 -10 9 -10 9 3 0 16 -19 39 -32 39
-4 0 -8 -11 -8 -25z m5 -86 c0 -8 -25 -21 -65 -32 -56 -16 -80 -17 -175 -9
-60 6 -139 8 -175 6 -71 -5 -97 4 -86 31 5 14 14 16 44 11 20 -3 105 -8 187
-11 116 -5 161 -3 200 9 57 16 70 15 70 -5z m-52 -349 c-21 -90 -100 -177
-187 -204 -112 -35 -227 8 -276 104 -38 77 -39 75 48 99 93 25 92 25 92 6 0
-21 40 -55 65 -55 12 0 30 9 41 21 18 20 18 22 2 33 -10 7 -15 15 -12 18 3 3
56 5 119 4 l114 -1 -6 -25z"/>
<path d="M1239 1094 c-22 -27 -90 -56 -146 -61 -58 -6 -151 11 -195 36 -15 8
-31 12 -35 7 -28 -28 103 -85 197 -86 55 0 109 17 187 58 39 20 42 24 31 42
-15 24 -22 25 -39 4z"/>
<path d="M928 633 c-15 -37 -26 -67 -25 -67 1 -1 24 -21 50 -46 37 -34 50 -41
59 -32 9 9 4 20 -25 50 -34 34 -36 40 -28 72 21 80 22 90 9 90 -7 0 -25 -30
-40 -67z"/>
<path d="M1570 1561 c-23 -16 -9 -21 82 -31 47 -6 102 -17 121 -25 20 -8 53
-15 73 -15 37 0 37 0 19 20 -10 11 -41 27 -69 35 -65 19 -206 29 -226 16z"/>
<path d="M1685 1230 c-20 -38 -19 -53 3 -73 42 -38 92 -12 92 46 0 56 -69 77
-95 27z"/>
<path d="M726 945 c-6 -17 0 -108 11 -155 l6 -25 7 25 c8 31 2 138 -9 158 -7
12 -9 12 -15 -3z"/>
</g>
</svg>
